<?xml version="1.0" standalone="no"?>
<!DOCTYPE svg PUBLIC "-//W3C//DTD SVG 20010904//EN"
 "http://www.w3.org/TR/2001/REC-SVG-20010904/DTD/svg10.dtd">
<svg version="1.0" xmlns="http://www.w3.org/2000/svg"
 height="70px" viewBox="0 0 300.000000 70.000000"
 preserveAspectRatio="xMidYMid meet">

<g transform="translate(0.000000,70.000000) scale(0.100000,-0.100000)"
fill="#000000" stroke="none">
<path d="M1800 425 c0 -38 3 -45 20 -45 17 0 20 7 20 45 0 38 -3 45 -20 45
-17 0 -20 -7 -20 -45z"/>
<path d="M2390 325 c0 -138 1 -145 20 -145 19 0 20 7 20 145 0 138 -1 145 -20
145 -19 0 -20 -7 -20 -145z"/>
<path d="M208 338 l-3 -113 -39 0 c-24 0 -41 -5 -44 -14 -12 -35 83 -44 114
-10 16 18 20 40 22 135 l4 114 -26 0 -25 0 -3 -112z"/>
<path d="M820 314 l0 -136 81 4 c66 3 83 7 95 23 21 28 18 81 -6 103 -18 17
-19 20 -5 32 21 18 19 66 -5 90 -16 16 -33 20 -90 20 l-70 0 0 -136z m132 90
c12 -8 9 -39 -4 -52 -7 -7 -29 -12 -50 -12 -36 0 -38 1 -38 33 0 19 3 37 7 41
7 7 70 -1 85 -10z m14 -129 c9 -37 -11 -55 -62 -55 l-44 0 0 40 0 40 50 0 c45
0 50 -2 56 -25z"/>
<path d="M2160 314 l0 -136 81 4 c66 3 83 7 95 23 21 28 18 81 -6 103 -18 17
-19 20 -5 32 21 18 19 66 -5 90 -16 16 -33 20 -90 20 l-70 0 0 -136z m132 90
c12 -8 9 -39 -4 -52 -7 -7 -29 -12 -50 -12 -36 0 -38 1 -38 33 0 19 3 37 7 41
7 7 70 -1 85 -10z m14 -129 c9 -37 -11 -55 -62 -55 l-44 0 0 40 0 40 50 0 c45
0 50 -2 56 -25z"/>
<path d="M324 376 c-26 -20 -11 -31 44 -31 35 0 47 -4 50 -16 2 -12 -8 -18
-44 -23 -59 -8 -74 -20 -74 -62 0 -55 49 -81 101 -54 13 7 19 7 19 0 0 -5 9
-10 20 -10 18 0 20 7 20 85 0 72 -3 88 -20 105 -24 24 -87 27 -116 6z m96
-119 c0 -21 -22 -37 -52 -37 -20 0 -28 5 -28 18 0 26 9 32 47 32 20 0 33 -5
33 -13z"/>
<path d="M535 365 c-21 -20 -25 -34 -25 -80 0 -68 29 -105 82 -105 52 0 79 11
76 29 -2 12 -13 15 -46 12 -44 -3 -72 11 -72 35 0 11 16 14 65 14 l65 0 0 35
c0 49 -36 85 -85 85 -25 0 -44 -8 -60 -25z m86 -15 c10 -6 19 -20 19 -30 0
-17 -7 -20 -45 -20 -49 0 -59 15 -29 44 18 19 28 20 55 6z"/>
<path d="M1065 365 c-21 -20 -25 -34 -25 -80 0 -68 29 -105 82 -105 52 0 79
11 76 29 -2 12 -13 15 -46 12 -44 -3 -72 11 -72 35 0 11 16 14 65 14 l65 0 0
35 c0 49 -36 85 -85 85 -25 0 -44 -8 -60 -25z m86 -15 c10 -6 19 -20 19 -30 0
-17 -7 -20 -45 -20 -49 0 -59 15 -29 44 18 19 28 20 55 6z"/>
<path d="M1275 365 c-21 -20 -25 -34 -25 -80 0 -47 4 -60 26 -82 22 -22 32
-25 71 -20 65 7 78 25 78 103 0 57 -3 68 -24 85 -34 28 -96 25 -126 -6z m105
-34 c26 -50 4 -111 -40 -111 -19 0 -33 7 -40 19 -14 27 -13 84 2 99 19 19 66
15 78 -7z"/>
<path d="M1480 285 c0 -98 1 -105 20 -105 18 0 20 7 20 69 0 85 6 101 36 101
32 0 44 -27 44 -104 0 -59 2 -66 20 -66 17 0 19 8 22 83 l3 82 30 0 30 0 3
-82 c3 -82 3 -83 28 -83 l26 0 -3 84 c-3 65 -8 89 -23 105 -22 25 -77 28 -96
6 -11 -13 -14 -13 -27 0 -17 18 -64 20 -81 3 -9 -9 -12 -9 -12 0 0 7 -9 12
-20 12 -19 0 -20 -7 -20 -105z"/>
<path d="M1887 372 c-20 -22 -22 -65 -4 -80 7 -6 31 -17 53 -24 59 -20 52 -43
-13 -42 -59 2 -81 -20 -37 -36 67 -26 134 -1 134 50 0 36 -21 57 -66 66 -34 6
-54 27 -40 42 4 3 25 6 46 5 22 -1 42 3 46 9 19 30 -92 40 -119 10z"/>
<path d="M2505 365 c-21 -20 -25 -34 -25 -80 0 -47 4 -60 26 -82 22 -22 32
-25 71 -20 65 7 78 25 78 103 0 57 -3 68 -24 85 -34 28 -96 25 -126 -6z m105
-34 c26 -50 4 -111 -40 -111 -19 0 -33 7 -40 19 -14 27 -13 84 2 99 19 19 66
15 78 -7z"/>
<path d="M2721 364 c-32 -40 -29 -126 4 -159 26 -27 41 -30 79 -15 22 8 26 7
26 -9 0 -28 -25 -43 -66 -39 -25 2 -39 -2 -42 -11 -12 -35 95 -44 128 -11 18
18 20 33 20 145 0 118 -1 125 -20 125 -11 0 -20 -5 -20 -12 0 -9 -3 -9 -12 0
-22 22 -75 14 -97 -14z m97 -26 c17 -17 15 -84 -4 -102 -36 -37 -74 -12 -74
49 0 46 13 65 45 65 12 0 26 -5 33 -12z"/>
</g>
</svg>
